<svg
  xmlns="http://www.w3.org/2000/svg"
  width="100%"
  height="100%"
  viewBox="0 0 2048 1024"
  preserveAspectRatio="xMidYMid meet"
  lang="zh-CN"
  xml:lang="zh-CN"
  direction="ltr"
  role="img"
  aria-labelledby="title description"
>
  <title id="title">DLAIKit</title>
  <desc id="description">让课程资料井然有序，专注更深入的学习。 本地优先的课程工具包，支持导出、本地化、 学习笔记与 AI 辅助学习。</desc>

  <rect width="2048" height="1024" fill="#ffffff"/>

  <g
    fill="none"
    stroke="#2855d9"
    stroke-width="2"
    stroke-linecap="round"
    opacity="0.12"
  >
    <g>
      <path d="M-90 72 C54 8 216 18 318 104 C410 182 408 296 548 354"/>
      <path d="M-98 108 C48 44 202 52 292 128 C376 198 376 310 516 374"/>
      <path d="M-104 144 C40 82 184 86 266 154 C342 218 344 324 484 394"/>
      <path d="M-110 180 C34 120 168 120 240 180 C310 238 312 340 452 414"/>
      <path d="M-116 216 C26 158 150 154 214 204 C278 258 280 354 420 434"/>
      <path d="M-122 252 C20 196 134 188 188 230 C246 278 248 370 388 454"/>
      <path d="M-128 288 C12 236 116 224 162 254 C214 298 216 384 356 474"/>
    </g>
    <g transform="translate(2048 1024) scale(-1 -1)">
      <path d="M-90 72 C54 8 216 18 318 104 C410 182 408 296 548 354"/>
      <path d="M-98 108 C48 44 202 52 292 128 C376 198 376 310 516 374"/>
      <path d="M-104 144 C40 82 184 86 266 154 C342 218 344 324 484 394"/>
      <path d="M-110 180 C34 120 168 120 240 180 C310 238 312 340 452 414"/>
      <path d="M-116 216 C26 158 150 154 214 204 C278 258 280 354 420 434"/>
      <path d="M-122 252 C20 196 134 188 188 230 C246 278 248 370 388 454"/>
      <path d="M-128 288 C12 236 116 224 162 254 C214 298 216 384 356 474"/>
    </g>
  </g>

  <g fill="none" stroke="#2855d9" stroke-width="1.5" opacity="0.08">
    <path d="M1470 78 C1604 38 1750 48 1840 112 C1920 170 1960 254 2070 280"/>
    <path d="M1512 112 C1628 78 1750 86 1828 142 C1898 192 1938 266 2058 302"/>
    <path d="M1576 876 C1692 932 1818 936 1902 882 C1976 836 2018 770 2080 756"/>
    <path d="M-30 742 C72 760 110 834 190 880 C278 930 394 924 508 876"/>
  </g>

  <g id="cover-logo" data-safe-logo="true" direction="ltr" unicode-bidi="isolate" transform="translate(224.0002 67.0) scale(1.0)"><g xmlns="http://www.w3.org/2000/svg" id="logo-mark" transform="translate(379.28 97.7565) scale(0.360326)"><path d="M174 84H116C88 84 72 100 72 128V384C72 412 88 428 116 428H174" fill="none" stroke="#2855d9" stroke-width="32" stroke-linecap="round" stroke-linejoin="round" />
  <path d="M338 84H396C424 84 440 100 440 128V384C440 412 424 428 396 428H338" fill="none" stroke="#202124" stroke-width="32" stroke-linecap="round" stroke-linejoin="round" />
  <path d="M166 176H258V336H346" fill="none" stroke="#202124" stroke-width="30" stroke-linecap="round" stroke-linejoin="round" />
  <circle cx="166" cy="176" r="30" fill="#2855d9" />
  <circle cx="258" cy="256" r="30" fill="#2855d9" />
  <circle cx="346" cy="336" r="30" fill="#202124" />
</g>
    <text xmlns="http://www.w3.org/2000/svg" id="logo-wordmark" x="573.823" y="258" fill="#202124" font-family="Inter, ui-sans-serif, -apple-system, BlinkMacSystemFont, Segoe UI, sans-serif" font-size="180" font-weight="700" letter-spacing="0">DLAIKit</text>
  </g>

  <g text-anchor="middle" letter-spacing="0">
    <rect x="988" y="370" width="72" height="5" rx="2.5" fill="#2855d9"/>

    <text
      id="headline"
      data-safe-text="true"
      x="1024"
      y="500"
      fill="#2855d9"
      font-family="'Songti SC', 'Noto Serif CJK SC', SimSun, serif"
      font-size="87"
      font-style="normal"
      font-weight="400"
    >让课程资料井然有序，专注更深入的学习。</text>

    <text
      id="description-line-1"
      data-safe-text="true"
      x="1024"
      y="620"
      fill="#5f6368"
      font-family="'PingFang SC', 'Noto Sans CJK SC', 'Microsoft YaHei', -apple-system, BlinkMacSystemFont, 'Segoe UI', sans-serif"
      font-size="52"
      font-weight="400"
    >本地优先的课程工具包，支持导出、本地化、</text>

    <text
      id="description-line-2"
      data-safe-text="true"
      x="1024"
      y="682"
      fill="#5f6368"
      font-family="'PingFang SC', 'Noto Sans CJK SC', 'Microsoft YaHei', -apple-system, BlinkMacSystemFont, 'Segoe UI', sans-serif"
      font-size="52"
      font-weight="400"
    >学习笔记与 AI 辅助学习。</text>
  </g>
</svg>
